<?xml version="1.0" encoding="utf-8"?>
<!-- Generator: Adobe Illustrator 22.1.0, SVG Export Plug-In . SVG Version: 6.00 Build 0)  -->
<svg version="1.1" xmlns="http://www.w3.org/2000/svg" xmlns:xlink="http://www.w3.org/1999/xlink" x="0px" y="0px"
	 viewBox="0 0 1024 1024" style="enable-background:new 0 0 1024 1024;" xml:space="preserve">
<style type="text/css">
	.st0{fill:#444444;}
	.st1{fill:#FFFFFF;}
</style>
<g id="Layer_3">
	<circle class="st0" cx="512" cy="512" r="508"/>
</g>
<g id="icons">
	<title>logo_icon</title>
	<path class="st1" d="M780.5,178.1h-36.6c-7,0-12.7,5.5-13,12.5c-3.6,86.9-44.7,148.9-102.6,201.6c-66.1-64.3-171.8-62.7-236.1,3.4
		c-49.4,50.9-61.3,127.4-29.7,190.8c-72.4,61.6-127.8,136.2-132,245.9c-0.3,7.2,5.4,13.2,12.6,13.5c0.2,0,0.3,0,0.5,0h36.6
		c7,0,12.7-5.5,13-12.5c3.9-84.7,47.4-145,107.5-197C431.2,663.9,470.9,679,512,679c92,0,167.6-76.1,167-168.1
		c-0.1-23.2-5.1-46.1-14.6-67.2c70.3-62.6,125-140.5,129.1-252c0.3-7.2-5.4-13.2-12.6-13.5C780.8,178.1,780.6,178.1,780.5,178.1z
		 M616.3,512c0,57.5-46.8,104.3-104.3,104.3c-21.8,0-43.1-6.8-60.8-19.6c-27.4-19.6-43.6-51.1-43.6-84.8
		c0-57.5,46.8-104.3,104.3-104.3C569.6,407.6,616.3,454.3,616.3,512C616.3,512,616.3,512,616.3,512z"/>
</g>
</svg>
